<svg width="23" height="23" viewBox="0 0 23 23" fill="none" xmlns="http://www.w3.org/2000/svg">
<path d="M5.33821 7.5584C5.06364 5.75002 6.33871 4.12565 8.28652 3.53052C8.63217 3.42484 9.00512 3.45492 9.32937 3.61464C9.65361 3.77436 9.90476 4.0517 10.0316 4.39015L10.657 6.05765C10.7576 6.3259 10.7758 6.61812 10.7092 6.8968C10.6426 7.17547 10.4943 7.42789 10.2832 7.62165L8.42308 9.32509C8.33139 9.40923 8.26307 9.51569 8.22478 9.6341C8.18648 9.7525 8.17953 9.87881 8.20458 10.0007L8.22183 10.0755L8.26639 10.2623C8.49773 11.1703 8.8502 12.0431 9.31433 12.857C9.81992 13.722 10.4473 14.5096 11.1773 15.1958L11.2348 15.2476C11.3277 15.33 11.4403 15.387 11.5618 15.4129C11.6832 15.4389 11.8093 15.4329 11.9277 15.3956L14.3326 14.6381C14.606 14.5523 14.8987 14.5501 15.1732 14.6318C15.4478 14.7135 15.6917 14.8754 15.8736 15.0966L17.0121 16.4781C17.4865 17.0531 17.429 17.8983 16.8842 18.4058C15.3935 19.7958 13.3436 20.0805 11.9176 18.9348C10.1697 17.5248 8.69614 15.8052 7.57064 13.8618C6.43601 11.92 5.67812 9.78139 5.33677 7.5584H5.33821ZM9.71252 10.0956L11.2535 8.68109C11.6759 8.29373 11.9729 7.78898 12.1063 7.23162C12.2398 6.67426 12.2036 6.08974 12.0025 5.55308L11.3786 3.88559C11.1232 3.20457 10.6178 2.64655 9.96525 2.32523C9.31275 2.00392 8.56228 1.9435 7.86677 2.15627C5.44746 2.89659 3.50539 5.06577 3.91652 7.77546C4.20402 9.66721 4.86671 12.0736 6.32864 14.5863C7.54292 16.6818 9.13243 18.5359 11.0178 20.056C13.1568 21.7738 16.0116 21.1873 17.866 19.4595C18.9671 18.4331 19.0793 16.7282 18.1233 15.5667L16.9848 14.1838C16.6206 13.7418 16.1327 13.4186 15.5836 13.2557C15.0344 13.0928 14.4492 13.0976 13.9028 13.2696L11.9061 13.8978C11.3906 13.3662 10.939 12.7762 10.5606 12.1397C10.1951 11.4962 9.91027 10.8102 9.71252 10.097V10.0956Z" fill="#E7C51D"/>
</svg>
