<svg width="36" height="31" viewBox="0 0 36 31" fill="none" xmlns="http://www.w3.org/2000/svg">
<path d="M31.1271 3.9754C30.3427 3.19063 29.4114 2.56809 28.3863 2.14335C27.3612 1.71861 26.2625 1.5 25.1529 1.5C24.0434 1.5 22.9446 1.71861 21.9196 2.14335C20.8945 2.56809 19.9632 3.19063 19.1788 3.9754L17.5508 5.60333L15.9229 3.9754C14.3385 2.39096 12.1895 1.50082 9.94875 1.50082C7.708 1.50082 5.55903 2.39096 3.97458 3.9754C2.39013 5.55985 1.5 7.70882 1.5 9.94957C1.5 12.1903 2.39013 14.3393 3.97458 15.9237L5.6025 17.5517L17.5508 29.5L29.4992 17.5517L31.1271 15.9237C31.9119 15.1393 32.5344 14.208 32.9592 13.1829C33.3839 12.1579 33.6025 11.0592 33.6025 9.94957C33.6025 8.83999 33.3839 7.74129 32.9592 6.71622C32.5344 5.69115 31.9119 4.75981 31.1271 3.9754V3.9754Z" stroke="#7B282A" stroke-width="3" stroke-linecap="round" stroke-linejoin="round"/>
</svg>
