<svg width="31" height="35" viewBox="0 0 31 35" fill="none" xmlns="http://www.w3.org/2000/svg">
<path d="M24.8327 10.8333C27.41 10.8333 29.4993 8.744 29.4993 6.16667C29.4993 3.58934 27.41 1.5 24.8327 1.5C22.2554 1.5 20.166 3.58934 20.166 6.16667C20.166 8.744 22.2554 10.8333 24.8327 10.8333Z" stroke="#7B282A" stroke-width="3" stroke-linecap="round" stroke-linejoin="round"/>
<path d="M6.16667 21.7222C8.744 21.7222 10.8333 19.6329 10.8333 17.0556C10.8333 14.4783 8.744 12.3889 6.16667 12.3889C3.58934 12.3889 1.5 14.4783 1.5 17.0556C1.5 19.6329 3.58934 21.7222 6.16667 21.7222Z" stroke="#7B282A" stroke-width="3" stroke-linecap="round" stroke-linejoin="round"/>
<path d="M24.8327 32.6112C27.41 32.6112 29.4993 30.5218 29.4993 27.9445C29.4993 25.3672 27.41 23.2778 24.8327 23.2778C22.2554 23.2778 20.166 25.3672 20.166 27.9445C20.166 30.5218 22.2554 32.6112 24.8327 32.6112Z" stroke="#7B282A" stroke-width="3" stroke-linecap="round" stroke-linejoin="round"/>
<path d="M10.1953 19.4044L20.8198 25.5955" stroke="#7B282A" stroke-width="3" stroke-linecap="round" stroke-linejoin="round"/>
<path d="M20.8042 8.5155L10.1953 14.7066" stroke="#7B282A" stroke-width="3" stroke-linecap="round" stroke-linejoin="round"/>
</svg>
